<svg data-noselect="" viewBox="0 0 240 80" width="480" height="160" preserveAspectRatio="none" version="1.1" xmlns="http://www.w3.org/2000/svg" style="background: rgb(255, 255, 255);"><defs></defs> <g id="shape_gIFKlnHmzx" transform="translate(699.82526779175,156.66176986694) rotate(0,51.865,39.17) scale(1,1)" filter="" style="cursor: move; opacity: 1;"><g><rect fill="rgba(0,0,0,0)" width="123.73" height="98.34" x="-10" y="-10"></rect><svg version="1.1" id="图层_1" xmlns="http://www.w3.org/2000/svg" xmlns:xlink="http://www.w3.org/1999/xlink" x="0px" y="0px" width="103.73" height="78.34" viewBox="8.134769439697266 46.985877990722656 177.48623657226562 118.1031265258789" enable-background="new 0 0 200 200" xml:space="preserve" preserveAspectRatio="none" data-parent="shape_gIFKlnHmzx">
<g>
	<g>
		<rect x="140.167" y="74.342" fill="#368FB1" width="25.821" height="25.821"></rect>
	</g>
	<g>
		<path fill="#368FB1" d="M102.423,165.089H62.778c-2.534,0-4.589-2.056-4.589-4.589s2.055-4.589,4.589-4.589h39.645
			c15.916,0,32.379-11.18,32.379-29.892c0-22.1-21.58-25.871-22.498-26.02l-4.244-0.693l0.397-4.281
			c0.686-7.096-1.867-14.598-6.831-20.063c-5.45-6.002-13.351-9.175-22.85-9.175c-23.706,0-27.28,23.842-27.42,24.858l-0.565,4.081
			l-4.122-0.111c-23.445-0.729-30.104,8.127-30.168,8.216c-1.457,2.02-4.294,2.558-6.348,1.147c-2.054-1.407-2.644-4.15-1.287-6.238
			c0.837-1.288,8.623-12.082,34.18-12.339c2.982-11.745,13.044-28.793,35.731-28.793c15.36,0,24.6,6.624,29.645,12.184
			c5.737,6.319,9.076,14.694,9.309,23.038c10.814,3.128,26.25,12.961,26.25,34.189C143.98,150.476,122.851,165.089,102.423,165.089z
			"></path>
	</g>
	<g>
		<path fill="#368FB1" d="M137.108,98.083c-4.099-4.038-9.485-7.74-16.337-10.891c0,0-4.895-41.302-54.795-35.062
			c0,0,49.319-22.548,64.248,26.77c0,0,2.907,1.439,6.884,4.314V98.083z"></path>
		<path fill="#368FB1" d="M153.537,100.164h-13.37V85.509C144.543,89.027,149.59,93.922,153.537,100.164z"></path>
		<path fill="#368FB1" d="M159.747,129.932c-4.803,29.615-33.316,34.602-35.091,34.877c1.071-0.581,12.789-7.129,19.58-20.774
			c5.599-11.197,7.404-27.167-2.601-40.812h13.676C159.197,110.535,161.461,119.438,159.747,129.932z"></path>
	</g>
	<rect x="160.828" y="51.603" fill="#368FB1" width="17.177" height="17.177"></rect>
	<rect x="173.065" y="75.186" fill="#368FB1" width="12.556" height="12.556"></rect>
</g>
</svg></g></g><g id="shape_9zwCU6PNZc" transform="translate(-104.20237786429,-30.000002179827) rotate(0,63.172619714285,12.370407178292) scale(1,1)" filter="" style="cursor: move; opacity: 1;"><g><svg xmlns="http://www.w3.org/2000/svg" version="1.1" xmlns:xlink="http://www.w3.org/1999/xlink" overflow="hidden" style="top:0; left: 0" width="126.34523942857" height="24.740814356583" viewBox="0 0 126.916668 24.852711" data-parent="shape_9zwCU6PNZc"><rect fill="rgba(0,0,0,0)" width="126.916668" height="24.852711"></rect> <rect opacity="0"></rect><g transform="translate(55,0)" data-width="71.916668"><path fill="rgb(54, 143, 177)" d="M0.78-1.21L0.78-10.26L0.41-10.67L3.47-10.67L3.47-1.21L0.78-1.21Z" transform="translate(5 17.621526)" data-glyph-w="3.877146"></path><path fill="rgb(54, 143, 177)" d="M0.78-1.21L0.78-10.26L0.41-10.67L12.60-10.67L15.24-9.31L15.24-1.21L0.78-1.21ZM12.58-9.25L3.47-9.25L3.47-2.63L12.58-2.63L12.58-9.25Z" transform="translate(8.877146 17.621526)" data-glyph-w="15.652182000000002"></path><path fill="rgb(54, 143, 177)" d="M14.34-2.65L14.34-0.80Q14.26-1.05 14.02-1.13Q13.79-1.21 13.60-1.21L13.60-1.21L0.78-1.21L0.78-10.28L0.41-10.69L14.34-10.69L14.34-8.84Q14.26-9.11 14.02-9.19Q13.79-9.27 13.60-9.27L13.60-9.27L3.45-9.27L3.45-2.65L14.34-2.65Z" transform="translate(24.529328 17.621526)" data-glyph-w="14.749566000000002"></path><path fill="rgb(54, 143, 177)" d="M0.41-1.21L0.41-3.41L3.10-3.41L3.10-1.21L0.41-1.21Z" transform="translate(39.278894 17.621526)" data-glyph-w="3.5078940000000003"></path><path fill="rgb(54, 143, 177)" d="M5.78-1.21L5.78-9.25L0.41-9.25L0.41-11.04L1.05-10.69L13.97-10.69L13.97-8.84Q13.87-9.11 13.64-9.18Q13.42-9.25 13.23-9.25L13.23-9.25L8.45-9.25L8.45-1.21L5.78-1.21Z" transform="translate(42.786788 17.621526)" data-glyph-w="14.380314"></path><path fill="rgb(54, 143, 177)" d="M14.34-2.65L14.34-0.80Q14.26-1.05 14.02-1.13Q13.79-1.21 13.60-1.21L13.60-1.21L0.78-1.21L0.78-10.28L0.41-10.69L14.34-10.69L14.34-8.84Q14.26-9.11 14.02-9.19Q13.79-9.27 13.60-9.27L13.60-9.27L3.45-9.27L3.45-2.65L14.34-2.65Z" transform="translate(57.167102 17.621526)" data-glyph-w="14.749566000000002"></path></g></svg></g></g><g id="shape_hzN1F6eCBK" transform="translate(6.3863669804164305,10.493499854942426) rotate(0,26.18181818181819,26.18181818181819) scale(1,1)" filter="" style="cursor: move; opacity: 1;"><g><rect fill="rgba(0,0,0,0)" width="72.36363636363637" height="72.36363636363637" x="-10" y="-10"></rect><svg version="1.1" id="图层_1" xmlns="http://www.w3.org/2000/svg" xmlns:xlink="http://www.w3.org/1999/xlink" x="0px" y="0px" width="52.36363636363638" height="52.36363636363638" viewBox="0 0 283.46 283.46" style="enable-background:new 0 0 283.46 283.46;" xml:space="preserve" preserveAspectRatio="none" data-parent="shape_hzN1F6eCBK">
<g>
	
		<linearGradient id="SVGID_1__HTUApXygGl" gradientUnits="userSpaceOnUse" x1="-120.0953" y1="-294.4729" x2="1.8299" y2="-294.4729" gradientTransform="matrix(-0.8064 0.5914 0.5914 0.8064 330.6669 379.0039)">
		<stop offset="0" style="" stop-color="#2693FC"></stop>
		<stop offset="0.5279" style="" stop-color="#895BE2"></stop>
		<stop offset="1" style="" stop-color="#F41CC9"></stop>
	</linearGradient>
	<path style="" d="M156.495,144.521c19.324,28.578,56.35,34.755,82.7,13.797s32.046-61.114,12.721-89.692
		c-19.324-28.578-56.35-34.755-82.7-13.797S137.171,115.943,156.495,144.521z" fill="url(#SVGID_1__HTUApXygGl)"></path>
	<g>
		
			<linearGradient id="SVGID_2__y5IVGyZUYp" gradientUnits="userSpaceOnUse" x1="37.6396" y1="86.6493" x2="267.9388" y2="222.3985" gradientTransform="matrix(-1 0 0 1 283.5314 0)">
			<stop offset="0" style="" stop-color="#3299F8"></stop>
			<stop offset="0.4466" style="" stop-color="#836BE7"></stop>
			<stop offset="1" style="" stop-color="#D131F3"></stop>
		</linearGradient>
		<path style="" d="M197.46,281.831c18.492-3.501,46.032-15.896,63.619-56.772
			c3.415-7.937,5.465-16.485,6.135-25.218c0.644-8.383,2.552-22.823,7.948-44.63c0,0,9.462-31.176-17.031-58.234
			c0,0-27.707-27.253-43.726-56.714c0,0-19.643-49.201-81.299-38.838c-4.062,0.683-7.9,2.466-11.16,5.191
			c-6.923,5.788-22.676,16.051-45.845,14.319c-7.823-0.585-15.604,2.024-21.707,7.38C39.666,41.242,19.004,74.757,13.356,161.597
			c-0.143,2.196-0.118,4.407,0.095,6.596c1.285,13.213,9.245,54.01,58.507,67.899c0,0,69.614,30.485,96.262,42.283
			C177.481,282.474,187.609,283.696,197.46,281.831z" opacity="0.95" fill="url(#SVGID_2__y5IVGyZUYp)"></path>
		
			<linearGradient id="SVGID_3__KSMO6sGEJT" gradientUnits="userSpaceOnUse" x1="220.9602" y1="192.5058" x2="29.271" y2="64.0108" gradientTransform="matrix(-1 0 0 1 283.5314 0)">
			<stop offset="0" style="" stop-color="#FF3250"></stop>
			<stop offset="0.1802" style="" stop-color="#FF4946"></stop>
			<stop offset="1" style="" stop-color="#FEAE1B"></stop>
		</linearGradient>
		<path style="" d="M22.524,214.39c5.487,19.564,20.435,47.822,61.096,61.845
			c7.895,2.723,16.206,3.895,24.529,3.553c7.989-0.328,21.845-0.028,43.066,3.144c0,0,30.545,6.423,52.961-25.521
			c0,0,22.457-33.28,48.377-54.194c0,0,44.126-27.242,27.07-92.63c-1.124-4.308-3.26-8.24-6.217-11.43
			c-6.28-6.777-17.826-22.554-18.925-47.813c-0.371-8.528-3.752-16.621-9.528-22.565C231.015,14.434,196.94-3.81,114.301,0.686
			c-2.089,0.114-4.174,0.41-6.215,0.908C95.765,4.596,58.193,18.182,50.895,73.132c0,0-20.564,78.978-28.557,109.226
			C19.56,192.871,19.601,203.968,22.524,214.39z" fill="url(#SVGID_3__KSMO6sGEJT)"></path>
		
			<linearGradient id="SVGID_4__pSrzOvP1dz" gradientUnits="userSpaceOnUse" x1="30.1801" y1="141.0485" x2="268.1359" y2="142.0697" gradientTransform="matrix(-1 0 0 1 283.5314 0)">
			<stop offset="0" style="" stop-color="#F5A033"></stop>
			<stop offset="0.1089" style="" stop-color="#F2A036"></stop>
			<stop offset="0.2002" style="" stop-color="#E99F41"></stop>
			<stop offset="0.2851" style="" stop-color="#D99D52"></stop>
			<stop offset="0.3662" style="" stop-color="#C29B6B"></stop>
			<stop offset="0.4445" style="" stop-color="#A5988A"></stop>
			<stop offset="0.5208" style="" stop-color="#8294B1"></stop>
			<stop offset="0.5941" style="" stop-color="#5990DE"></stop>
			<stop offset="0.6256" style="" stop-color="#458EF4"></stop>
			<stop offset="0.7533" style="" stop-color="#428FF4"></stop>
			<stop offset="0.8534" style="" stop-color="#3894F5"></stop>
			<stop offset="0.9439" style="" stop-color="#279BF6"></stop>
			<stop offset="1" style="" stop-color="#19A1F7"></stop>
		</linearGradient>
		<path style="" d="M223.748,250.75c14.743-11.961,34.059-36.215,34.285-81.271
			c0.044-8.749-1.32-17.394-3.948-25.548c-2.522-7.827-6.174-21.69-9.508-43.825c0,0-3.253-32.478-36.159-44.113
			c0,0-34.03-11.231-58.739-30.017c0,0-35.104-34.765-84.739,3.94c-3.27,2.55-5.942,5.981-7.766,9.979
			C53.3,48.39,43.415,65.11,22.696,74.607c-6.996,3.207-12.781,9.259-16.103,16.974c-8.017,18.621-13.612,58.54,13.399,139.13
			c0.683,2.038,1.517,4.009,2.505,5.871c5.969,11.24,27.858,44.038,75.661,33c0,0,71.542-5.859,98.975-7.987
			C206.667,260.857,215.894,257.122,223.748,250.75z" fill="url(#SVGID_4__pSrzOvP1dz)"></path>
		
			<linearGradient id="SVGID_5__WCsud7QOtn" gradientUnits="userSpaceOnUse" x1="3604.8247" y1="2400.3752" x2="3714.7866" y2="2534.8286" gradientTransform="matrix(-0.8031 0.5959 0.5959 0.8031 1620.87 -4090.1416)">
			<stop offset="0" style="" stop-color="#1DB2EA"></stop>
			<stop offset="1" style="" stop-color="#37F794"></stop>
		</linearGradient>
		<path style="" d="M253.649,208.33c11.862-14.322,26.039-41.101,19.077-83.223
			c-1.352-8.179-4.002-15.96-7.754-23.012c-3.601-6.769-9.218-18.933-15.856-38.889c0,0-8.208-29.632-40.788-33.459
			c0,0-33.564-3.209-59.629-15.467c0,0-38.314-24.955-78.501,21.803c-2.648,3.081-4.596,6.855-5.663,10.979
			c-2.265,8.76-8.833,26.487-26.669,39.787c-6.022,4.491-10.461,11.379-12.335,19.294c-4.522,19.102-3.392,57.575,34.661,127.053
			c0.962,1.757,2.055,3.419,3.274,4.947c7.363,9.219,33.024,35.165,75.905,14.633c0,0,65.873-20.772,91.15-28.626
			C239.308,221.421,247.33,215.96,253.649,208.33z" fill="url(#SVGID_5__WCsud7QOtn)"></path>
	</g>
</g>
</svg></g></g><g id="shape_KOc2DdP2PZ" transform="translate(54.82142857142852,14.064935411725731) rotate(0,90.62499999999994,20.734375) scale(1,1)" filter="" style="cursor: move; opacity: 1;"><g><svg xmlns="http://www.w3.org/2000/svg" version="1.1" xmlns:xlink="http://www.w3.org/1999/xlink" width="181.2499999999999" height="41.46875" viewBox="0 0 181.2499999999999 41.46875" data-parent="shape_KOc2DdP2PZ"><rect fill="rgba(0,0,0,0)" width="181.2499999999999" height="41.46875"></rect><g data-width="164" transform="translate(8.624999999999943, 0)"><path d="M1.60-32.07L15.21-32.07Q16.14-32.07 16.14-31.15L16.14-31.15L16.14-30.71Q16.14-29.79 15.21-29.79L15.21-29.79L1.60-29.79Q0.68-29.79 0.68-30.71L0.68-30.71L0.68-31.15Q0.68-32.07 1.60-32.07L1.60-32.07ZM21.78-3.16L19.30-9.81Q18.66-8.89 18.02-8.13L18.02-8.13Q17.74-7.81 17.34-7.81L17.34-7.81Q16.94-7.81 16.66-8.09L16.66-8.09L16.58-8.17Q16.22-8.53 16.38-9.05L16.38-9.05Q17.90-14.77 18.34-21.94L18.34-21.94Q18.38-22.82 19.26-22.82L19.26-22.82L22.34-22.82Q22.74-22.82 23.02-22.54L23.02-22.54Q23.30-22.22 23.26-21.82L23.26-21.82Q23.26-21.54 23.22-21.30L23.22-21.30L28.11-21.30Q29.07-21.30 29.07-20.34L29.07-20.34L29.07-18.98Q29.07 0.44 18.54 6.05L18.54 6.05Q18.18 6.25 17.82 6.13L17.82 6.13Q17.42 6.01 17.26 5.65L17.26 5.65L17.18 5.53Q16.94 4.96 17.34 4.52L17.34 4.52Q19.90 1.52 21.78-3.16L21.78-3.16ZM21.74-14.77L23.70-9.45Q24.66-13.69 24.78-18.02L24.78-18.02Q24.78-18.42 24.50-18.70L24.50-18.70Q24.22-18.98 23.82-18.98L23.82-18.98L22.86-18.98Q22.46-16.78 21.74-14.77L21.74-14.77ZM29.75-20.34L29.75 1.08Q29.75 2.24 30.31 3.40L30.31 3.40Q31.35 5.73 34.03 5.73L34.03 5.73L39.52 5.73Q40.44 5.73 40.44 4.80L40.44 4.80L40.44 4.32Q40.44 3.40 39.52 3.40L39.52 3.40L35.47 3.40Q34.03 3.40 34.03 1.88L34.03 1.88L34.03-18.98L34.55-18.98Q35.47-18.98 35.47-18.06L35.47-18.06L35.47-10.49Q35.47-6.65 34.47-4.68L34.47-4.68Q34.27-4.28 34.47-3.88L34.47-3.88L34.67-3.40Q35.03-2.68 35.79-2.88L35.79-2.88Q39.72-4.04 39.72-10.49L39.72-10.49L39.72-20.34Q39.72-21.30 38.80-21.30L38.80-21.30L30.67-21.30Q29.75-21.30 29.75-20.34L29.75-20.34ZM17.26-24.54L17.26-29.63Q17.26-30.55 18.18-30.55L18.18-30.55L25.38-30.55L25.38-32.71Q25.38-33.63 26.31-33.63L26.31-33.63L30.63-33.63Q31.55-33.63 31.55-32.71L31.55-32.71L31.55-30.55L38.76-30.55Q39.68-30.55 39.68-29.63L39.68-29.63L39.68-24.54Q39.68-23.58 38.76-23.58L38.76-23.58L34.43-23.58Q33.47-23.58 33.47-24.54L33.47-24.54L33.47-27.31Q33.47-28.23 32.55-28.23L32.55-28.23L24.38-28.23Q23.46-28.23 23.46-27.31L23.46-27.31L23.46-24.54Q23.46-23.58 22.54-23.58L22.54-23.58L18.18-23.58Q17.26-23.58 17.26-24.54L17.26-24.54ZM1.08-12.17L1.08-25.75Q1.08-26.67 2.00-26.67L2.00-26.67L14.81-26.67Q15.74-26.67 15.74-25.75L15.74-25.75L15.74-12.17Q15.74-11.25 14.81-11.25L14.81-11.25L2.00-11.25Q1.08-11.25 1.08-12.17L1.08-12.17ZM9.57-14.49L9.57-23.46Q9.57-24.38 8.65-24.38L8.65-24.38L8.17-24.38Q7.25-24.38 7.25-23.46L7.25-23.46L7.25-14.49Q7.25-13.57 8.17-13.57L8.17-13.57L8.65-13.57Q9.57-13.57 9.57-14.49L9.57-14.49ZM1.24 3.40L2.24 3.40L1.16-7.93Q1.12-8.33 1.40-8.65L1.40-8.65Q1.68-8.93 2.08-8.93L2.08-8.93L5.65-8.93Q6.49-8.93 6.57-8.09L6.57-8.09L7.61 3.40L9.21 3.40L10.25-8.09Q10.33-8.93 11.17-8.93L11.17-8.93L14.73-8.93Q15.13-8.93 15.42-8.65L15.42-8.65Q15.70-8.33 15.66-7.93L15.66-7.93L14.61 3.40L15.58 3.40Q16.50 3.40 16.50 4.32L16.50 4.32L16.50 4.80Q16.50 5.73 15.58 5.73L15.58 5.73L1.24 5.73Q0.32 5.73 0.32 4.80L0.32 4.80L0.32 4.32Q0.32 3.40 1.24 3.40L1.24 3.40Z" transform="translate(0 35) " fill="rgb(0, 0, 0)" stroke="rgb(0, 0, 0)" stroke-linecap="square" stroke-linejoin="square" stroke-width="0.068" data-glyph-w="41" data-glyph-h="40.0390625" data-glyph-ascender="35.234375" data-glyph-descender="-4.8046875"></path><path d="M2.00-32.87L38.76-32.87Q39.68-32.87 39.68-31.95L39.68-31.95L39.68-31.47Q39.68-30.55 38.76-30.55L38.76-30.55L2.00-30.55Q1.08-30.55 1.08-31.47L1.08-31.47L1.08-31.95Q1.08-32.87 2.00-32.87L2.00-32.87ZM1.84-10.65L1.84-25.75Q1.84-26.67 2.76-26.67L2.76-26.67L37.96-26.67Q38.88-26.67 38.88-25.75L38.88-25.75L38.88-10.65Q38.88-9.69 37.96-9.69L37.96-9.69L2.76-9.69Q1.84-9.69 1.84-10.65L1.84-10.65ZM32.71-12.93L32.71-23.46Q32.71-24.38 31.79-24.38L31.79-24.38L8.97-24.38Q8.01-24.38 8.01-23.46L8.01-23.46L8.01-12.93Q8.01-12.01 8.97-12.01L8.97-12.01L31.79-12.01Q32.71-12.01 32.71-12.93L32.71-12.93ZM1.24 4.16L5.89 4.16L2.96-6.21Q2.84-6.65 3.12-7.01L3.12-7.01Q3.40-7.41 3.84-7.41L3.84-7.41L8.09-7.41Q8.81-7.41 8.97-6.73L8.97-6.73L12.09 4.16L28.67 4.16L31.75-6.73Q31.95-7.41 32.63-7.41L32.63-7.41L36.92-7.41Q37.36-7.41 37.64-7.01L37.64-7.01Q37.92-6.65 37.80-6.21L37.80-6.21L34.83 4.16L39.52 4.16Q40.44 4.16 40.44 5.13L40.44 5.13L40.44 5.57Q40.44 6.49 39.52 6.49L39.52 6.49L1.24 6.49Q0.32 6.49 0.32 5.57L0.32 5.57L0.32 5.13Q0.32 4.16 1.24 4.16L1.24 4.16Z" transform="translate(41 35) " fill="rgb(0, 0, 0)" stroke="rgb(0, 0, 0)" stroke-linecap="square" stroke-linejoin="square" stroke-width="0.068" data-glyph-w="41" data-glyph-h="40.0390625" data-glyph-ascender="35.234375" data-glyph-descender="-4.8046875"></path><path d="M4.16 4.80L4.16-31.15Q4.16-32.07 5.08-32.07L5.08-32.07L35.63-32.07Q36.60-32.07 36.60-31.15L36.60-31.15L36.60 4.80Q36.60 5.73 35.63 5.73L35.63 5.73L5.08 5.73Q4.16 5.73 4.16 4.80L4.16 4.80ZM10.33-28.83L10.33-14.33L30.39-14.33L30.39-28.83Q30.39-29.79 29.47-29.79L29.47-29.79L11.25-29.79Q10.33-29.79 10.33-28.83L10.33-28.83ZM30.39 2.48L30.39-12.01L10.33-12.01L10.33 2.48Q10.33 3.40 11.25 3.40L11.25 3.40L29.47 3.40Q30.39 3.40 30.39 2.48L30.39 2.48Z" transform="translate(82 35) " fill="rgb(0, 0, 0)" stroke="rgb(0, 0, 0)" stroke-linecap="square" stroke-linejoin="square" stroke-width="0.068" data-glyph-w="41" data-glyph-h="40.0390625" data-glyph-ascender="35.234375" data-glyph-descender="-4.8046875"></path><path d="M18.22-33.63L22.54-33.63Q23.46-33.63 23.46-32.71L23.46-32.71L23.46-28.99L39.52-28.99Q40.44-28.99 40.44-28.07L40.44-28.07L40.44-27.63Q40.44-26.67 39.52-26.67L39.52-26.67L23.46-26.67L23.46-16.66L37.96-16.66Q38.88-16.66 38.88-15.74L38.88-15.74L38.88-15.25Q38.88-14.33 37.96-14.33L37.96-14.33L2.76-14.33Q1.84-14.33 1.84-15.25L1.84-15.25L1.84-15.74Q1.84-16.66 2.76-16.66L2.76-16.66L17.30-16.66L17.30-26.67L1.24-26.67Q0.32-26.67 0.32-27.63L0.32-27.63L0.32-28.07Q0.32-28.99 1.24-28.99L1.24-28.99L17.30-28.99L17.30-32.71Q17.30-33.63 18.22-33.63L18.22-33.63ZM10.33-9.57L10.33 1.08Q10.33 2.24 10.93 3.40L10.93 3.40Q12.09 5.73 14.97 5.73L14.97 5.73L30.27 5.73Q31.19 5.73 31.19 4.80L31.19 4.80L31.19 4.32Q31.19 3.40 30.27 3.40L30.27 3.40L18.06 3.40Q16.50 3.40 16.50 1.88L16.50 1.88L16.50-9.57Q16.50-10.49 15.58-10.49L15.58-10.49L11.25-10.49Q10.33-10.49 10.33-9.57L10.33-9.57ZM6.61 4.92L8.65-9.41Q8.69-9.85 8.45-10.17L8.45-10.17Q8.17-10.49 7.73-10.49L7.73-10.49L3.44-10.49Q2.64-10.49 2.52-9.69L2.52-9.69L0.44 4.68Q0.40 5.08 0.68 5.41L0.68 5.41Q0.96 5.73 1.36 5.73L1.36 5.73L5.69 5.73Q6.49 5.73 6.61 4.92L6.61 4.92ZM34.15 4.92L32.11-9.41Q32.03-9.85 32.31-10.17L32.31-10.17Q32.59-10.49 33.03-10.49L33.03-10.49L37.32-10.49Q38.12-10.49 38.24-9.69L38.24-9.69L40.28 4.68Q40.36 5.08 40.08 5.41L40.08 5.41Q39.80 5.73 39.36 5.73L39.36 5.73L35.07 5.73Q34.27 5.73 34.15 4.92L34.15 4.92ZM22.58 1.04L21.26-9.45Q21.22-9.85 21.50-10.17L21.50-10.17Q21.78-10.49 22.18-10.49L22.18-10.49L26.51-10.49Q27.31-10.49 27.43-9.65L27.43-9.65L28.75 0.84Q28.79 1.24 28.51 1.56L28.51 1.56Q28.23 1.88 27.83 1.88L27.83 1.88L23.50 1.88Q22.70 1.88 22.58 1.04L22.58 1.04Z" transform="translate(123 35) " fill="rgb(0, 0, 0)" stroke="rgb(0, 0, 0)" stroke-linecap="square" stroke-linejoin="square" stroke-width="0.068" data-glyph-w="41" data-glyph-h="40.0390625" data-glyph-ascender="35.234375" data-glyph-descender="-4.8046875"></path></g></svg></g></g><g id="shape_dEMBplzyOU" transform="translate(118.62142857142861,58.50496009557111) rotate(0,5.927639396065936,5.927639396065932) scale(1,1)" filter="" style="cursor: move; opacity: 1;"><g><rect fill="rgba(0,0,0,0)" width="31.85527879213187" height="31.855278792131863" x="-10" y="-10"></rect><svg version="1.1" id="图层_1" xmlns="http://www.w3.org/2000/svg" xmlns:xlink="http://www.w3.org/1999/xlink" x="0px" y="0px" width="11.855278792131871" height="11.855278792131864" viewBox="0 0 100 100" enable-background="new 0 0 100 100" xml:space="preserve" shapetype="ellipse" preserveAspectRatio="none" data-parent="shape_dEMBplzyOU">
	 <linearGradient class="" x1="0%" y1="0%" x2="0%" y2="100%" gradientTransform="translate(0.5,0.5) rotate(0) translate(-0.5,-0.5)">
		<stop id="stop1_Q6NXKcutQz" offset="0%" class="" stop-color="#05a"></stop>
		<stop id="stop2_HAmrBaBGiI" offset="100%" class="" stop-color="#0a5"></stop>
	</linearGradient>

	<radialGradient class="" cx="50%" cy="50%" r="50%" fx="50%" fy="50%">
		<stop offset="0%" class="" stop-color="#05a"></stop>
		<stop offset="100%" class="" stop-color="#0a5"></stop>
	</radialGradient>
	<clipPath id="f_ellipse_fV5U8MYDal" class="">
		<ellipse fill="none" class="" stroke="#000000" stroke-width="1" stroke-miterlimit="10" cx="50" cy="50" rx="50" ry="50"></ellipse>
	</clipPath>
	<ellipse class="" fill="#000000" opacity="1" cx="50" cy="50" rx="49" ry="49"></ellipse>
	<ellipse class="" fill="none" stroke="#000000" stroke-width="0" stroke-miterlimit="10" cx="50" cy="50" rx="50" ry="50" clip-path="url(#f_ellipse_fV5U8MYDal)"></ellipse>
</svg></g></g><g id="shape_PRmbEJBUYH" transform="translate(154.39946236559146,59.327694552285315) rotate(0,5.927639396065936,5.927639396065932) scale(1,1)" filter="" style="cursor: move; opacity: 1;"><g><rect fill="rgba(0,0,0,0)" width="31.85527879213187" height="31.855278792131863" x="-10" y="-10"></rect><svg version="1.1" id="图层_1" xmlns="http://www.w3.org/2000/svg" xmlns:xlink="http://www.w3.org/1999/xlink" x="0px" y="0px" width="11.855278792131871" height="11.855278792131864" viewBox="0 0 100 100" enable-background="new 0 0 100 100" xml:space="preserve" shapetype="ellipse" preserveAspectRatio="none" data-parent="shape_PRmbEJBUYH">
	 <linearGradient class="" x1="0%" y1="0%" x2="0%" y2="100%" gradientTransform="translate(0.5,0.5) rotate(0) translate(-0.5,-0.5)">
		<stop id="stop1_Q6NXKcutQz_c" offset="0%" class="" stop-color="#05a"></stop>
		<stop id="stop2_HAmrBaBGiI_c" offset="100%" class="" stop-color="#0a5"></stop>
	</linearGradient>

	<radialGradient class="" cx="50%" cy="50%" r="50%" fx="50%" fy="50%">
		<stop offset="0%" class="" stop-color="#05a"></stop>
		<stop offset="100%" class="" stop-color="#0a5"></stop>
	</radialGradient>
	<clipPath id="f_ellipse_fV5U8MYDal_c" class="">
		<ellipse fill="none" class="" stroke="#000000" stroke-width="1" stroke-miterlimit="10" cx="50" cy="50" rx="50" ry="50"></ellipse>
	</clipPath>
	<ellipse class="" fill="#000000" opacity="1" cx="50" cy="50" rx="49" ry="49"></ellipse>
	<ellipse class="" fill="none" stroke="#000000" stroke-width="0" stroke-miterlimit="10" cx="50" cy="50" rx="50" ry="50" clip-path="url(#f_ellipse_fV5U8MYDal_c)"></ellipse>
</svg></g></g><g id="shape_zUNzZrOzVk" transform="translate(95.96712749615979,59.014662832021706) rotate(0,8.92368522245583,0.31303492221278045) scale(1,1)" filter="" style="cursor: move; opacity: 1;"><g><rect fill="rgba(0,0,0,0)" width="37.84737044491166" height="20.62606984442556" x="-10" y="-10"></rect><svg version="1.1" id="图层_1" x="0px" y="0px" width="17.84737044491166" height="0.6260698444255609" viewBox="0 97.5 200 5" enable-background="new 0 97.5 200 5" xml:space="preserve" xmlns="http://www.w3.org/2000/svg" xmlns:xlink="http://www.w3.org/1999/xlink" xmlns:xml="http://www.w3.org/XML/1998/namespace" preserveAspectRatio="none" data-parent="shape_zUNzZrOzVk">
  <path fill="#000000" d="M197.581,97.5H2.419C1.083,97.5,0,98.619,0,100s1.083,2.5,2.419,2.5h195.162c1.336,0,2.419-1.119,2.419-2.5
	S198.917,97.5,197.581,97.5z" class=""></path>
</svg></g></g><g id="shape_GHgHnNGCc5" transform="translate(171.91282642089112,59.014661898517744) rotate(0,8.92368522245583,0.31303492221278045) scale(1,1)" filter="" style="cursor: move; opacity: 1;"><g><rect fill="rgba(0,0,0,0)" width="37.84737044491166" height="20.62606984442556" x="-10" y="-10"></rect><svg version="1.1" id="图层_1" x="0px" y="0px" width="17.84737044491166" height="0.6260698444255609" viewBox="0 97.5 200 5" enable-background="new 0 97.5 200 5" xml:space="preserve" xmlns="http://www.w3.org/2000/svg" xmlns:xlink="http://www.w3.org/1999/xlink" xmlns:xml="http://www.w3.org/XML/1998/namespace" preserveAspectRatio="none" data-parent="shape_GHgHnNGCc5">
  <path fill="#000000" d="M197.581,97.5H2.419C1.083,97.5,0,98.619,0,100s1.083,2.5,2.419,2.5h195.162c1.336,0,2.419-1.119,2.419-2.5
	S198.917,97.5,197.581,97.5z" class=""></path>
</svg></g></g>  <!----></svg>